# xmcd
#
# Track frame offsets:
#	150
#	25977
#	50691
#	76192
#	99531
#	126051
#	156014
#	183744
#	208863
#	233017
#	256597
#	279644
#
# Disc length: 4043 seconds
#
# Revision: 0
# Processed by: cddbd v1.5.2PL0 Copyright (c) Steve Scherf et al.
# Submitted via: audiograbber 1.83.01
#
DISCID=9e0fc90c
DTITLE=Various Artist - X-Mix Dance 135 (Sept 2010)
DYEAR=2010
DGENRE=
TTITLE0=ciara ft ludacris - ride (la riots remix) (130 BPM)
TTITLE1=richard vission and static revenger ft luciana - i like that (angger di
TTITLE1=mas remix)(129 BPM)
TTITLE2=dj dan presents future retro - fascinated (chew fu love toy fix extende
TTITLE2=d) (129 BPM)
TTITLE3=yolanda be cool and dcup - we no speak americano (chew fu rosetta stone
TTITLE3=fix)(128 BPM)
TTITLE4=soul seekerz - dancing on the ceiling (extended)(128 BPM)
TTITLE5=georgie porgie - its the music (that takes me away) (georgie s original
TTITLE5=club) (128 BPM)
TTITLE6=dj mog ft sarah lynn - somewhere (extended mix) (128 BPM)
TTITLE7=katy perry - teenage dream (vandalism le pop extended mix) (128 BPM)
TTITLE8=mishal moore - it ain t over (wideboys st tropez mixshow edit) (127 BPM
TTITLE8=)
TTITLE9=usher ft pitbull - dj got us fallin in love (jump smokers remix) (126 B
TTITLE9=PM)
TTITLE10=uffie - add suv (armand van helden remix club) (125 BPM)
TTITLE11=maroon 5 - misery (bimbo jones club mix)  (125 BPM)
EXTD=
EXTT0=
EXTT1=
EXTT2=
EXTT3=
EXTT4=
EXTT5=
EXTT6=
EXTT7=
EXTT8=
EXTT9=
EXTT10=
EXTT11=
PLAYORDER=
